<svg width="35" height="36" viewBox="0 0 35 36" fill="none" xmlns="http://www.w3.org/2000/svg">
<path d="M15.6012 6.66821C16.1087 6.59821 16.429 6.60871 16.674 6.65771C16.9768 6.72774 17.2648 6.85099 17.5245 7.02171C17.6723 7.11245 17.8366 7.17299 18.008 7.19983C18.1794 7.22667 18.3543 7.21928 18.5228 7.17808C18.6913 7.13689 18.85 7.0627 18.9896 6.95982C19.1293 6.85693 19.2471 6.72739 19.3364 6.57868C19.4257 6.42996 19.4846 6.26503 19.5097 6.09341C19.5349 5.92179 19.5258 5.74689 19.4829 5.57881C19.44 5.41074 19.3643 5.25283 19.26 5.11421C19.1558 4.97559 19.0251 4.85901 18.8755 4.77121C18.3578 4.44527 17.7867 4.21306 17.1885 4.08521C16.5602 3.95921 15.9215 3.97146 15.2145 4.07296L15.183 4.07646C13.783 4.31096 12.6857 5.03371 11.9367 6.10996C11.214 7.15296 10.864 8.45496 10.7642 9.82871C10.7625 9.8596 10.762 9.89053 10.7625 9.92146V9.93546L10.7607 9.97746L10.7555 10.1227L10.7327 10.5952C10.7152 10.9837 10.6855 11.5052 10.6522 12.1212L10.6435 12.284H8.39997C8.05188 12.284 7.71804 12.4222 7.4719 12.6684C7.22575 12.9145 7.08747 13.2484 7.08747 13.5965C7.08747 13.9446 7.22575 14.2784 7.4719 14.5245C7.71804 14.7707 8.05188 14.909 8.39997 14.909H10.4912L10.3915 16.603C10.2384 19.2417 10.071 21.8796 9.88922 24.5165C9.70197 26.7635 9.50422 28.258 8.09197 29.084C7.38672 29.4847 6.30872 29.4602 5.13447 28.874C4.82609 28.7384 4.4774 28.7266 4.16055 28.841C3.84371 28.9554 3.58298 29.1872 3.43233 29.4885C3.28168 29.7898 3.25264 30.1375 3.35123 30.4596C3.44982 30.7817 3.66849 31.0536 3.96197 31.219C5.58422 32.0327 7.65447 32.3582 9.39922 31.3607L9.40972 31.3555C12.0925 29.7892 12.3287 26.893 12.4897 24.94L12.5072 24.73V24.7212C12.6105 23.3772 12.901 18.6662 13.1197 14.909H16.275C16.6231 14.909 16.9569 14.7707 17.2031 14.5245C17.4492 14.2784 17.5875 13.9446 17.5875 13.5965C17.5875 13.2484 17.4492 12.9145 17.2031 12.6684C16.9569 12.4222 16.6231 12.284 16.275 12.284H13.272C13.3367 11.115 13.3805 10.261 13.3857 9.98096C13.4662 8.92046 13.727 8.13471 14.0927 7.60796C14.4375 7.11271 14.91 6.78546 15.6012 6.66821ZM29.365 18.4632C29.4904 18.3422 29.5904 18.1974 29.6593 18.0373C29.7282 17.8772 29.7645 17.705 29.766 17.5307C29.7676 17.3565 29.7345 17.1836 29.6686 17.0223C29.6027 16.861 29.5053 16.7144 29.3821 16.5911C29.2589 16.4678 29.1124 16.3703 28.9512 16.3042C28.7899 16.2381 28.6171 16.2048 28.4428 16.2063C28.2685 16.2077 28.0963 16.2438 27.9361 16.3125C27.776 16.3812 27.6311 16.4812 27.51 16.6065L22.9967 21.118C22.5365 20.3377 22.0931 19.5477 21.6667 18.7485L21.539 18.5455C21.2712 18.1167 20.8722 17.4762 20.3875 17.0282C20.0281 16.6833 19.5836 16.44 19.0995 16.323C18.5366 16.2022 17.95 16.2641 17.4247 16.4997C17.3383 16.5369 17.2562 16.5832 17.1797 16.638L17.122 16.6765C16.9433 16.795 16.7773 16.9316 16.6267 17.0842C16.548 17.1665 16.4692 17.2592 16.3957 17.345L16.3572 17.3905L16.0702 17.723C15.8421 17.9861 15.7279 18.3291 15.7526 18.6765C15.7774 19.0239 15.9392 19.3472 16.2023 19.5753C16.4655 19.8035 16.8085 19.9177 17.1559 19.8929C17.5033 19.8681 17.8266 19.7064 18.0547 19.4432L18.3575 19.0897L18.3942 19.046C18.4677 18.9585 18.4957 18.927 18.5115 18.9112L18.5325 18.8955C18.55 18.906 18.5727 18.9252 18.6042 18.955C18.704 19.046 18.823 19.1912 18.9752 19.4152C19.0762 19.5643 19.1742 19.7155 19.2692 19.8685L19.4232 20.1135C19.635 20.5247 20.2807 21.6832 21.0787 23.036L16.135 27.9815C16.006 28.1016 15.9026 28.2465 15.8309 28.4075C15.7591 28.5685 15.7205 28.7423 15.7174 28.9186C15.7143 29.0948 15.7467 29.2698 15.8128 29.4333C15.8788 29.5967 15.977 29.7451 16.1017 29.8698C16.2263 29.9944 16.3747 30.0927 16.5382 30.1587C16.7016 30.2247 16.8767 30.2571 17.0529 30.254C17.2291 30.2509 17.4029 30.2123 17.5639 30.1406C17.7249 30.0688 17.8698 29.9654 17.99 29.8365L22.6485 25.1797C23.1427 26.0158 23.6188 26.8624 24.0765 27.719L24.164 27.8712C24.3915 28.258 24.7765 28.916 25.284 29.3972C25.599 29.6965 26.0225 29.9922 26.5667 30.1357C27.184 30.2906 27.8355 30.2313 28.4147 29.9677C29.0377 29.6562 29.4227 29.2537 29.8217 28.6045C30.0034 28.3074 30.0597 27.9504 29.9781 27.6118C29.8966 27.2733 29.6839 26.981 29.3868 26.7993C29.0898 26.6176 28.7327 26.5614 28.3942 26.6429C28.0557 26.7245 27.7634 26.9372 27.5817 27.2342C27.5202 27.3449 27.4462 27.4483 27.3612 27.5422C27.3446 27.5593 27.3258 27.574 27.3052 27.586C27.2863 27.5912 27.267 27.5947 27.2475 27.5965H27.2352C27.2352 27.5965 27.223 27.593 27.2002 27.579C27.1605 27.5537 27.1236 27.5244 27.09 27.4915C26.9551 27.3553 26.836 27.2044 26.7347 27.0417C26.6388 26.8936 26.5466 26.743 26.4582 26.5902L26.3532 26.41C25.7811 25.3474 25.1854 24.2977 24.5665 23.2617L29.365 18.4615V18.4632ZM18.5465 18.8867H18.55H18.5465Z" fill="#777777"/>
</svg>
