<svg width="17" height="15" viewBox="0 0 17 15" fill="none" xmlns="http://www.w3.org/2000/svg">
<g clip-path="url(#clip0_8_146)">
<path d="M6.77974 4.42875C6.4226 4.96542 6.01486 5.76167 5.55653 6.8175C5.42558 6.555 5.31546 6.34354 5.22617 6.18313C5.13689 6.02271 5.01635 5.8375 4.86456 5.6275C4.71278 5.4175 4.56099 5.25271 4.40921 5.13313C4.25742 5.01354 4.06992 4.91146 3.84671 4.82688C3.62349 4.74229 3.38093 4.7 3.11903 4.7H1.11903C1.03569 4.7 0.967242 4.67375 0.91367 4.62125C0.860099 4.56875 0.833313 4.50167 0.833313 4.42V2.74C0.833313 2.65833 0.860099 2.59125 0.91367 2.53875C0.967242 2.48625 1.03569 2.46 1.11903 2.46H3.11903C4.60712 2.46 5.82736 3.11625 6.77974 4.42875ZM16.8333 11.42C16.8333 11.5017 16.8065 11.5688 16.753 11.6213L13.8958 14.4213C13.8422 14.4738 13.7738 14.5 13.6905 14.5C13.6131 14.5 13.5461 14.4723 13.4896 14.4169C13.433 14.3615 13.4047 14.2958 13.4047 14.22V12.54C13.2143 12.54 12.9613 12.5415 12.6458 12.5444C12.3303 12.5473 12.0893 12.5502 11.9226 12.5531C11.7559 12.556 11.5387 12.5531 11.2708 12.5444C11.003 12.5356 10.7916 12.521 10.6369 12.5006C10.4821 12.4802 10.2916 12.4496 10.0655 12.4088C9.83927 12.3679 9.65177 12.314 9.50296 12.2469C9.35415 12.1798 9.18153 12.0967 8.9851 11.9975C8.78867 11.8983 8.61308 11.7817 8.45831 11.6475C8.30355 11.5133 8.13986 11.3573 7.96724 11.1794C7.79462 11.0015 7.62796 10.7988 7.46724 10.5713C7.81843 10.0288 8.2232 9.2325 8.68153 8.1825C8.81248 8.445 8.9226 8.65646 9.01189 8.81688C9.10117 8.97729 9.22171 9.1625 9.37349 9.3725C9.52528 9.5825 9.67706 9.74729 9.82885 9.86688C9.98064 9.98646 10.1681 10.0885 10.3913 10.1731C10.6146 10.2577 10.8571 10.3 11.119 10.3H13.4047V8.62C13.4047 8.53833 13.4315 8.47125 13.4851 8.41875C13.5387 8.36625 13.6071 8.34 13.6905 8.34C13.7619 8.34 13.8333 8.36917 13.9047 8.4275L16.753 11.2188C16.8065 11.2713 16.8333 11.3383 16.8333 11.42ZM16.8333 3.58C16.8333 3.66167 16.8065 3.72875 16.753 3.78125L13.8958 6.58125C13.8422 6.63375 13.7738 6.66 13.6905 6.66C13.6131 6.66 13.5461 6.63229 13.4896 6.57688C13.433 6.52146 13.4047 6.45583 13.4047 6.38V4.7H11.119C10.8333 4.7 10.5744 4.74375 10.3422 4.83125C10.1101 4.91875 9.90474 5.05 9.72617 5.225C9.5476 5.4 9.39581 5.57938 9.27081 5.76313C9.14581 5.94688 9.01189 6.17292 8.86903 6.44125C8.67855 6.80292 8.44641 7.30167 8.1726 7.9375C7.99998 8.3225 7.85266 8.64625 7.73064 8.90875C7.60861 9.17125 7.4479 9.4775 7.24849 9.8275C7.04909 10.1775 6.85861 10.4692 6.67706 10.7025C6.49552 10.9358 6.27528 11.1779 6.01635 11.4288C5.75742 11.6796 5.48956 11.8794 5.21278 12.0281C4.93599 12.1769 4.61903 12.2994 4.26188 12.3956C3.90474 12.4919 3.52379 12.54 3.11903 12.54H1.11903C1.03569 12.54 0.967242 12.5138 0.91367 12.4613C0.860099 12.4088 0.833313 12.3417 0.833313 12.26V10.58C0.833313 10.4983 0.860099 10.4313 0.91367 10.3788C0.967242 10.3263 1.03569 10.3 1.11903 10.3H3.11903C3.40474 10.3 3.66367 10.2563 3.89581 10.1688C4.12796 10.0813 4.33331 9.95 4.51188 9.775C4.69046 9.6 4.84224 9.42063 4.96724 9.23688C5.09224 9.05313 5.22617 8.82708 5.36903 8.55875C5.5595 8.19708 5.79165 7.69833 6.06546 7.0625C6.23808 6.6775 6.3854 6.35375 6.50742 6.09125C6.62944 5.82875 6.79016 5.5225 6.98956 5.1725C7.18897 4.8225 7.37945 4.53083 7.56099 4.2975C7.74254 4.06417 7.96278 3.82208 8.22171 3.57125C8.48064 3.32042 8.74849 3.12063 9.02528 2.97188C9.30206 2.82313 9.61903 2.70063 9.97617 2.60438C10.3333 2.50813 10.7143 2.46 11.119 2.46H13.4047V0.78C13.4047 0.698333 13.4315 0.63125 13.4851 0.57875C13.5387 0.52625 13.6071 0.5 13.6905 0.5C13.7619 0.5 13.8333 0.529167 13.9047 0.5875L16.753 3.37875C16.8065 3.43125 16.8333 3.49833 16.8333 3.58Z" fill="white"/>
</g>
<defs>
<clipPath id="clip0_8_146">
<rect width="16" height="14" fill="white" transform="translate(0.833313 0.5)"/>
</clipPath>
</defs>
</svg>
